<svg id="Layer_1" data-name="Layer 1" xmlns="http://www.w3.org/2000/svg" viewBox="0 0 283.46 149.93"><defs><style>.cls-1{fill:#dfbf86;}</style></defs><path class="cls-1" d="M98.11,66.74H93.17a.25.25,0,0,0-.19.06.2.2,0,0,0-.08.13.2.2,0,0,0,.06.14.24.24,0,0,0,.17.09,4.13,4.13,0,0,1,.5.12,2.67,2.67,0,0,1,.68.3,1.91,1.91,0,0,1,.6.6,1.64,1.64,0,0,1,.26,1v7.77c0,.09,0,.14-.06.16s-.1,0-.17-.08l-.35-.4-.83-1L92.57,74.2l-1.39-1.64c-.48-.57-1-1.14-1.45-1.72l-1.35-1.61L87.26,67.9,86.52,67a.81.81,0,0,0-.64-.27H80.72a.25.25,0,0,0-.19.06.2.2,0,0,0-.08.13.2.2,0,0,0,.06.14.22.22,0,0,0,.17.09,4.13,4.13,0,0,1,.5.12,2.67,2.67,0,0,1,.68.3,1.91,1.91,0,0,1,.6.6,1.64,1.64,0,0,1,.26,1V81.87a1.66,1.66,0,0,1-.26,1,2,2,0,0,1-.6.59,2.4,2.4,0,0,1-.68.31l-.5.11a.3.3,0,0,0-.17.09.22.22,0,0,0-.06.14.2.2,0,0,0,.08.13.25.25,0,0,0,.19.06h4.94a.25.25,0,0,0,.19-.06.2.2,0,0,0,.08-.13.22.22,0,0,0-.06-.14.34.34,0,0,0-.17-.09l-.5-.11a2.4,2.4,0,0,1-.68-.31,2,2,0,0,1-.6-.59,1.66,1.66,0,0,1-.26-1V70.43a.16.16,0,0,1,.06-.15s.1,0,.16.06l.34.4.89,1.06c.38.44.81,1,1.3,1.54L88,75.22l1.71,2,1.72,2L93,81.2l1.32,1.57.92,1.08.38.45a.29.29,0,0,0,.32.1.27.27,0,0,0,.15-.27v-15a1.64,1.64,0,0,1,.26-1,1.91,1.91,0,0,1,.6-.6,2.67,2.67,0,0,1,.68-.3,4.13,4.13,0,0,1,.5-.12.24.24,0,0,0,.17-.09.2.2,0,0,0,.06-.14.2.2,0,0,0-.08-.13A.25.25,0,0,0,98.11,66.74Z"/><path class="cls-1" d="M115.71,84V80.58c0-.14-.06-.21-.17-.22s-.2,0-.25.18-.1.21-.19.39a3.58,3.58,0,0,1-.38.59,6.6,6.6,0,0,1-.58.68,4,4,0,0,1-.81.64,4.75,4.75,0,0,1-1,.48,4.25,4.25,0,0,1-1.28.19,4.47,4.47,0,0,1-2.28-.48,1.54,1.54,0,0,1-.81-1.41V75.83a.21.21,0,0,1,.2-.2h1.66a1.69,1.69,0,0,1,1,.24,1.82,1.82,0,0,1,.59.54,2.34,2.34,0,0,1,.3.62,3.16,3.16,0,0,1,.12.46.2.2,0,0,0,.09.15.23.23,0,0,0,.14,0,.24.24,0,0,0,.13-.07.21.21,0,0,0,.06-.16V73a.21.21,0,0,0-.06-.16.18.18,0,0,0-.13-.06.17.17,0,0,0-.14,0,.2.2,0,0,0-.09.15,2.87,2.87,0,0,1-.12.46,2.21,2.21,0,0,1-.3.62,2,2,0,0,1-.59.55,1.78,1.78,0,0,1-1,.23h-1.66a.18.18,0,0,1-.14-.06.18.18,0,0,1-.06-.13V69.37a1.8,1.8,0,0,1,.2-.87,1.64,1.64,0,0,1,.56-.58,2.63,2.63,0,0,1,.87-.33,5.42,5.42,0,0,1,1.11-.11,3.46,3.46,0,0,1,1.5.3,4.24,4.24,0,0,1,1,.67,4.32,4.32,0,0,1,.65.76,5.84,5.84,0,0,1,.31.53c.07.13.15.18.26.17a.2.2,0,0,0,.16-.22V67c0-.17-.1-.25-.28-.25H101.63a.25.25,0,0,0-.19.06.2.2,0,0,0-.08.13.2.2,0,0,0,.06.14.24.24,0,0,0,.17.09,4.13,4.13,0,0,1,.5.12,2.67,2.67,0,0,1,.68.3,1.91,1.91,0,0,1,.6.6,1.64,1.64,0,0,1,.26,1V81.87a1.66,1.66,0,0,1-.26,1,2,2,0,0,1-.6.59,2.4,2.4,0,0,1-.68.31l-.5.11a.34.34,0,0,0-.17.09.22.22,0,0,0-.06.14.2.2,0,0,0,.08.13.25.25,0,0,0,.19.06h13.8C115.61,84.29,115.71,84.2,115.71,84Z"/><path class="cls-1" d="M142.56,66.76h-4.81a.23.23,0,0,0-.17,0,.24.24,0,0,0-.07.12.17.17,0,0,0,0,.14.24.24,0,0,0,.16.1l.5.13a2,2,0,0,1,.58.25,1.2,1.2,0,0,1,.41.48,1.08,1.08,0,0,1,0,.76c-.09.33-.22.73-.38,1.23s-.34,1-.54,1.6l-.62,1.76L137,75.11l-.53,1.48c-.16.44-.29.79-.37,1,0,.07-.07.11-.13.11s-.1,0-.13-.11l-.37-1c-.15-.41-.33-.86-.52-1.37s-.39-1-.59-1.59l-.59-1.64c-.19-.54-.37-1-.53-1.52s-.28-.87-.37-1.21a1.86,1.86,0,0,1-.07-.75A1.49,1.49,0,0,1,133,68a1.07,1.07,0,0,1,.35-.38,2.25,2.25,0,0,1,.41-.25,1.93,1.93,0,0,1,.39-.15l.26-.08a.37.37,0,0,0,.18-.1.14.14,0,0,0,0-.14.19.19,0,0,0-.07-.12.2.2,0,0,0-.15,0H118a.24.24,0,0,0-.18,0,.23.23,0,0,0-.08.14.21.21,0,0,0,0,.15.14.14,0,0,0,.14.08,2.72,2.72,0,0,1,1.34.72,5.14,5.14,0,0,1,1.1,1.65c.14.29.31.7.52,1.21l.67,1.77c.25.65.51,1.36.79,2.12s.55,1.53.84,2.31.55,1.56.83,2.32.53,1.48.76,2.15.45,1.28.64,1.8.34,1,.45,1.28c0,.12.11.17.2.16a.24.24,0,0,0,.2-.18c.11-.28.24-.65.41-1.09l.56-1.49c.2-.55.43-1.14.66-1.78s.49-1.28.74-1.95.5-1.34.76-2,.51-1.35.76-2a.21.21,0,0,1,.13-.13c.05,0,.09,0,.13.09s.06.18.16.45.23.61.38,1,.32.92.52,1.47.41,1.12.61,1.71l.63,1.77c.22.59.42,1.15.6,1.67s.35,1,.5,1.38.25.7.32.91.11.17.2.16.15-.07.2-.18l.52-1.38c.21-.57.45-1.22.72-1.93s.55-1.47.85-2.27.61-1.62.92-2.44l.92-2.41.84-2.2c.27-.67.5-1.27.71-1.79s.36-.92.48-1.2a2.67,2.67,0,0,1,.89-1.15,4.1,4.1,0,0,1,1.24-.56.27.27,0,0,0,.15-.09.19.19,0,0,0,0-.14.24.24,0,0,0-.07-.12A.2.2,0,0,0,142.56,66.76Zm-13.15,6.29c-.06.27-.15.58-.25.92s-.22.69-.35,1.06l-.38,1.06-.33.91c-.1.26-.18.47-.23.62s-.07.11-.12.11-.11,0-.14-.11q-.14-.34-.36-1c-.16-.41-.33-.86-.52-1.37l-.6-1.59c-.21-.56-.41-1.11-.6-1.64s-.36-1-.52-1.52-.28-.87-.36-1.21a1.77,1.77,0,0,1-.07-.86,1.16,1.16,0,0,1,.25-.56,1,1,0,0,1,.45-.3,1.81,1.81,0,0,1,.55-.09,3.28,3.28,0,0,1,.93.12,2.24,2.24,0,0,1,.74.37,2.84,2.84,0,0,1,.6.64,6.15,6.15,0,0,1,.5.9c.06.15.14.33.24.56s.21.47.31.73a8.36,8.36,0,0,1,.25.81,3,3,0,0,1,.11.76A2.71,2.71,0,0,1,129.41,73.05Z"/><path class="cls-1" d="M167.7,81.93a.23.23,0,0,0-.18,0,6.74,6.74,0,0,1-1.79.64,9.07,9.07,0,0,1-1.76.18,7.42,7.42,0,0,1-2.81-.49,5.12,5.12,0,0,1-2-1.41,6.19,6.19,0,0,1-1.22-2.29,10.76,10.76,0,0,1-.41-3.09,19.63,19.63,0,0,1,.26-3.25,9.74,9.74,0,0,1,.83-2.67,4.91,4.91,0,0,1,1.45-1.79,3.53,3.53,0,0,1,2.16-.66,3.64,3.64,0,0,1,1.7.38,4.4,4.4,0,0,1,1.25.95,6.24,6.24,0,0,1,.86,1.26c.23.45.43.87.59,1.26a.32.32,0,0,0,.11.12.17.17,0,0,0,.12,0,.23.23,0,0,0,.12-.06.2.2,0,0,0,0-.15V67.83a.34.34,0,0,0-.15-.27,3.39,3.39,0,0,0-.4-.23,7.44,7.44,0,0,0-1-.4,11.63,11.63,0,0,0-1.5-.38,10.83,10.83,0,0,0-2-.17,9.5,9.5,0,0,0-3.75.73,9.33,9.33,0,0,0-3,2,9.05,9.05,0,0,0-2,2.94,8.81,8.81,0,0,0-.73,3.57,10.07,10.07,0,0,0,.62,3.55A8.43,8.43,0,0,0,154.92,82,8.34,8.34,0,0,0,157.8,84a10,10,0,0,0,3.87.7,9.18,9.18,0,0,0,3.45-.61,8,8,0,0,0,2.65-1.73.26.26,0,0,0,.09-.17.16.16,0,0,0,0-.14A.21.21,0,0,0,167.7,81.93Z"/><path class="cls-1" d="M185,80.36c-.11,0-.2,0-.25.18a3.14,3.14,0,0,1-.19.39,4.23,4.23,0,0,1-.37.59,6.78,6.78,0,0,1-.59.68,4.24,4.24,0,0,1-.8.64,5.23,5.23,0,0,1-1,.48,4.3,4.3,0,0,1-1.28.19,4.51,4.51,0,0,1-2.29-.48,1.54,1.54,0,0,1-.81-1.41V75.83a.18.18,0,0,1,.06-.14.2.2,0,0,1,.14-.06h1.66a1.75,1.75,0,0,1,1,.24,1.89,1.89,0,0,1,.58.54,2.12,2.12,0,0,1,.31.62,2.86,2.86,0,0,1,.11.46.2.2,0,0,0,.09.15.25.25,0,0,0,.14,0,.24.24,0,0,0,.13-.07.21.21,0,0,0,.06-.16V73a.21.21,0,0,0-.06-.16.18.18,0,0,0-.13-.06.18.18,0,0,0-.14,0,.2.2,0,0,0-.09.15,2.63,2.63,0,0,1-.11.46,2,2,0,0,1-.31.62,2,2,0,0,1-.58.55,1.84,1.84,0,0,1-1,.23h-1.66a.2.2,0,0,1-.14-.06.18.18,0,0,1-.06-.13V69.37a1.7,1.7,0,0,1,.21-.87,1.61,1.61,0,0,1,.55-.58,2.63,2.63,0,0,1,.87-.33,5.52,5.52,0,0,1,1.12-.11,3.41,3.41,0,0,1,1.49.3,4.05,4.05,0,0,1,1,.67,3.94,3.94,0,0,1,.65.76,4.11,4.11,0,0,1,.31.53.26.26,0,0,0,.26.17c.11,0,.16-.09.16-.22V67c0-.17-.09-.25-.27-.25H171.09a.27.27,0,0,0-.19.06.19.19,0,0,0-.07.13.16.16,0,0,0,0,.14.26.26,0,0,0,.18.09,4.61,4.61,0,0,1,.49.12,2.67,2.67,0,0,1,.68.3,2,2,0,0,1,.61.6,1.72,1.72,0,0,1,.26,1V81.87a1.73,1.73,0,0,1-.26,1,2.13,2.13,0,0,1-.61.59,2.4,2.4,0,0,1-.68.31l-.49.11a.38.38,0,0,0-.18.09.16.16,0,0,0,0,.14.19.19,0,0,0,.07.13.27.27,0,0,0,.19.06H184.9c.18,0,.27-.09.27-.25V80.58C185.17,80.44,185.11,80.37,185,80.36Z"/><path class="cls-1" d="M205.69,66.74h-4.94a.25.25,0,0,0-.19.06.2.2,0,0,0-.08.13.2.2,0,0,0,.06.14.24.24,0,0,0,.17.09,4.13,4.13,0,0,1,.5.12,2.67,2.67,0,0,1,.68.3,1.91,1.91,0,0,1,.6.6,1.64,1.64,0,0,1,.26,1v7.77c0,.09,0,.14-.06.16s-.1,0-.17-.08l-.35-.4-.83-1-1.19-1.41-1.39-1.64c-.49-.57-1-1.14-1.45-1.72L196,69.23l-1.12-1.33L194.1,67a.81.81,0,0,0-.64-.27H188.3a.25.25,0,0,0-.19.06.2.2,0,0,0-.08.13.2.2,0,0,0,.06.14.24.24,0,0,0,.17.09,4.13,4.13,0,0,1,.5.12,2.67,2.67,0,0,1,.68.3,1.91,1.91,0,0,1,.6.6,1.64,1.64,0,0,1,.26,1V81.87a1.66,1.66,0,0,1-.26,1,2,2,0,0,1-.6.59,2.4,2.4,0,0,1-.68.31l-.5.11a.34.34,0,0,0-.17.09.22.22,0,0,0-.06.14.2.2,0,0,0,.08.13.25.25,0,0,0,.19.06h4.94a.25.25,0,0,0,.19-.06.2.2,0,0,0,.08-.13.22.22,0,0,0-.06-.14.34.34,0,0,0-.17-.09l-.5-.11a2.4,2.4,0,0,1-.68-.31,2,2,0,0,1-.6-.59,1.66,1.66,0,0,1-.26-1V70.43a.16.16,0,0,1,.06-.15s.1,0,.16.06l.34.4.89,1.06c.38.44.81,1,1.3,1.54l1.58,1.88,1.71,2,1.72,2,1.59,1.88c.51.59.95,1.12,1.33,1.57l.92,1.08.38.45a.29.29,0,0,0,.32.1.27.27,0,0,0,.15-.27v-15a1.64,1.64,0,0,1,.26-1,1.91,1.91,0,0,1,.6-.6,2.67,2.67,0,0,1,.68-.3,4.13,4.13,0,0,1,.5-.12.22.22,0,0,0,.17-.09.2.2,0,0,0,.06-.14.2.2,0,0,0-.08-.13A.25.25,0,0,0,205.69,66.74Z"/><path class="cls-1" d="M224.26,66.74H209.08c-.18,0-.27.08-.27.25V70.6c0,.14.05.22.17.23s.19,0,.24-.19.09-.21.18-.4a5.89,5.89,0,0,1,.37-.63,8.11,8.11,0,0,1,.57-.72,5.3,5.3,0,0,1,.79-.68,4.06,4.06,0,0,1,1-.51,3.64,3.64,0,0,1,1.27-.2,1.2,1.2,0,0,1,.65.15.94.94,0,0,1,.33.41,1.7,1.7,0,0,1,.12.57c0,.22,0,.43,0,.65v4.36c0,.71,0,1.43,0,2.17v6.06a1.73,1.73,0,0,1-.26,1,2.13,2.13,0,0,1-.61.59,2.29,2.29,0,0,1-.68.31l-.49.11a.38.38,0,0,0-.18.09.16.16,0,0,0-.05.14.19.19,0,0,0,.07.13.28.28,0,0,0,.2.06h8.29a.27.27,0,0,0,.19-.06.19.19,0,0,0,.07-.13A.16.16,0,0,0,221,84a.39.39,0,0,0-.17-.09l-.5-.11a2.4,2.4,0,0,1-.68-.31,2,2,0,0,1-.6-.59,1.66,1.66,0,0,1-.26-1V68.69a2.22,2.22,0,0,1,.06-.45,1,1,0,0,1,.18-.39.87.87,0,0,1,.33-.26,1.33,1.33,0,0,1,.53-.09,3.64,3.64,0,0,1,1.27.2,4.42,4.42,0,0,1,1,.51,5.3,5.3,0,0,1,.79.68,5.58,5.58,0,0,1,.57.72,5.89,5.89,0,0,1,.37.63c.08.19.14.32.18.4s.13.2.25.19.16-.09.16-.23V67C224.53,66.82,224.44,66.74,224.26,66.74Z"/><path class="cls-1" d="M245,66.74h-5.11a.27.27,0,0,0-.19.06.16.16,0,0,0-.07.13.16.16,0,0,0,0,.14.24.24,0,0,0,.17.09,4.13,4.13,0,0,1,.5.12,2.67,2.67,0,0,1,.68.3,1.91,1.91,0,0,1,.6.6,1.64,1.64,0,0,1,.26,1v8.28c0,.44,0,.92,0,1.43a9.58,9.58,0,0,1-.18,1.51,5.58,5.58,0,0,1-.48,1.39,2.84,2.84,0,0,1-.94,1.07,2.28,2.28,0,0,1-.53.3,4,4,0,0,1-.61.23,3.5,3.5,0,0,1-.64.15,4.55,4.55,0,0,1-.61,0,3.55,3.55,0,0,1-2.93-1.17A5.26,5.26,0,0,1,234,79V69.16a1.72,1.72,0,0,1,.26-1,2,2,0,0,1,.61-.6,2.53,2.53,0,0,1,.68-.3,4.09,4.09,0,0,1,.49-.12.26.26,0,0,0,.18-.09.19.19,0,0,0,.05-.14.24.24,0,0,0-.07-.13.3.3,0,0,0-.2-.06h-8.29a.27.27,0,0,0-.19.06.2.2,0,0,0-.08.13.2.2,0,0,0,.06.14.24.24,0,0,0,.17.09,4.13,4.13,0,0,1,.5.12,2.67,2.67,0,0,1,.68.3,1.91,1.91,0,0,1,.6.6,1.64,1.64,0,0,1,.26,1v9a9.65,9.65,0,0,0,.39,2.92,4.57,4.57,0,0,0,1.2,2,4.88,4.88,0,0,0,2.1,1.17,10.92,10.92,0,0,0,3.06.38,8.28,8.28,0,0,0,3.12-.51,4.74,4.74,0,0,0,2-1.46,5.88,5.88,0,0,0,1.08-2.34,13.75,13.75,0,0,0,.33-3.16v-8a1.64,1.64,0,0,1,.26-1,1.91,1.91,0,0,1,.6-.6,2.67,2.67,0,0,1,.68-.3,4.13,4.13,0,0,1,.5-.12.24.24,0,0,0,.17-.09.2.2,0,0,0,.06-.14.2.2,0,0,0-.08-.13A.25.25,0,0,0,245,66.74Z"/><path class="cls-1" d="M263.76,82.64a1.34,1.34,0,0,1-.37.08,1.39,1.39,0,0,1-.41,0,1.23,1.23,0,0,1-.4-.19,1,1,0,0,1-.31-.41,3.06,3.06,0,0,1-.21-.93c0-.39-.08-.89-.11-1.49a12.57,12.57,0,0,0-.14-1.55,3.45,3.45,0,0,0-.38-1.21,2.07,2.07,0,0,0-.55-.65,2.71,2.71,0,0,0-.65-.41,3.05,3.05,0,0,0-.58-.22l-.36-.09c-.07,0-.09,0-.08-.07s0-.07.11-.09a5.16,5.16,0,0,0,1.81-.86,4,4,0,0,0,1.22-1.61,3.91,3.91,0,0,0,.35-1.26,4.47,4.47,0,0,0-.06-1.32,4.54,4.54,0,0,0-.42-1.24,3.49,3.49,0,0,0-.79-1,4.54,4.54,0,0,0-1.24-.79,5.2,5.2,0,0,0-1.33-.39,8,8,0,0,0-1.4-.13l-1.46,0h-8a.25.25,0,0,0-.19.06.2.2,0,0,0-.08.13.2.2,0,0,0,.06.14.24.24,0,0,0,.17.09,4.13,4.13,0,0,1,.5.12,2.67,2.67,0,0,1,.68.3,1.91,1.91,0,0,1,.6.6,1.64,1.64,0,0,1,.26,1V81.87a1.66,1.66,0,0,1-.26,1,2,2,0,0,1-.6.59,2.4,2.4,0,0,1-.68.31l-.5.11a.34.34,0,0,0-.17.09.22.22,0,0,0-.06.14.2.2,0,0,0,.08.13.25.25,0,0,0,.19.06h8.29a.3.3,0,0,0,.2-.06.24.24,0,0,0,.07-.13.2.2,0,0,0-.05-.14.38.38,0,0,0-.18-.09c-.1,0-.27-.05-.49-.11a2.18,2.18,0,0,1-.68-.31,2,2,0,0,1-.61-.59,1.73,1.73,0,0,1-.26-1V76.66a.85.85,0,0,1,.17-.59.87.87,0,0,1,.61-.17,2.42,2.42,0,0,1,.73.12,1.48,1.48,0,0,1,.71.57,4.34,4.34,0,0,1,.58,1.32,13.16,13.16,0,0,1,.39,2.39c0,.52.1,1,.17,1.38a4.49,4.49,0,0,0,.32,1.07,2.85,2.85,0,0,0,.58.91,3,3,0,0,0,.79.59,3.33,3.33,0,0,0,.92.31,5.2,5.2,0,0,0,1,.09,3.62,3.62,0,0,0,1.06-.15,3.55,3.55,0,0,0,.88-.39,3.19,3.19,0,0,0,.64-.54,1.5,1.5,0,0,0,.33-.6c0-.16,0-.27-.07-.31A.33.33,0,0,0,263.76,82.64Zm-5.68-10a3.9,3.9,0,0,1-.47,1.23,2.39,2.39,0,0,1-.67.76,3,3,0,0,1-1.61.53l-.75,0c-.2,0-.3-.09-.3-.29V69.5a2.8,2.8,0,0,1,.14-.93,1.64,1.64,0,0,1,.39-.62,1.66,1.66,0,0,1,.6-.36,2.77,2.77,0,0,1,.78-.11,2.21,2.21,0,0,1,.87.17,1.62,1.62,0,0,1,.65.55,3,3,0,0,1,.4,1,6.86,6.86,0,0,1,.15,1.56A7.81,7.81,0,0,1,258.08,72.6Z"/><path class="cls-1" d="M283.39,66.8a.27.27,0,0,0-.19-.06h-4.49a.27.27,0,0,0-.19.06.19.19,0,0,0-.07.13.16.16,0,0,0,.05.14.26.26,0,0,0,.18.09l.38.07a1.25,1.25,0,0,1,.43.17.55.55,0,0,1,.24.35,1,1,0,0,1-.15.63,5.19,5.19,0,0,1-.37.62c-.19.3-.42.64-.68,1s-.53.8-.83,1.23-.57.84-.82,1.2l-.65.92c-.18.25-.29.4-.32.43a.26.26,0,0,1-.41,0c0-.05-.14-.19-.29-.42s-.35-.52-.57-.86l-.72-1.13-.72-1.19c-.23-.38-.44-.74-.62-1.06s-.31-.58-.39-.75a.91.91,0,0,1-.1-.61.65.65,0,0,1,.26-.36,1.28,1.28,0,0,1,.42-.17l.39-.08a.26.26,0,0,0,.18-.09.16.16,0,0,0,.05-.14.19.19,0,0,0-.07-.13.27.27,0,0,0-.19-.06H265a.27.27,0,0,0-.19.06.21.21,0,0,0-.07.14.16.16,0,0,0,.05.14.3.3,0,0,0,.17.08,2.53,2.53,0,0,1,.53.15,4,4,0,0,1,.61.32,4.85,4.85,0,0,1,.59.45,3.29,3.29,0,0,1,.5.56l.34.51c.15.24.34.52.55.84s.46.67.71,1.06l.78,1.18c.26.39.51.79.76,1.17s.47.73.68,1l.52.81.3.46a2.52,2.52,0,0,1,.18.38,2.46,2.46,0,0,1,.09.34,1.84,1.84,0,0,1,0,.33v5.11a1.73,1.73,0,0,1-.26,1,2.13,2.13,0,0,1-.61.59,2.4,2.4,0,0,1-.68.31l-.49.11a.38.38,0,0,0-.18.09.16.16,0,0,0-.05.14.19.19,0,0,0,.07.13.27.27,0,0,0,.19.06h8.17a.27.27,0,0,0,.19-.06.19.19,0,0,0,.07-.13.16.16,0,0,0-.05-.14.39.39,0,0,0-.17-.09l-.5-.11a2.4,2.4,0,0,1-.68-.31,2.13,2.13,0,0,1-.61-.59,1.73,1.73,0,0,1-.26-1v-6a3.5,3.5,0,0,1,.07-.72,2.63,2.63,0,0,1,.21-.59,5.13,5.13,0,0,1,.36-.56l.71-1,.91-1.26.94-1.28.82-1.1.53-.69a4.41,4.41,0,0,1,.71-.72,5,5,0,0,1,.68-.43,2.46,2.46,0,0,1,.59-.23,4,4,0,0,1,.47-.1.27.27,0,0,0,.17-.08.16.16,0,0,0,0-.14A.17.17,0,0,0,283.39,66.8Z"/><path class="cls-1" d="M92.8,102a1.5,1.5,0,0,1,.44-.43,2,2,0,0,1,.5-.23l.36-.08a.19.19,0,0,0,.13-.07.14.14,0,0,0,0-.1.14.14,0,0,0,0-.1.26.26,0,0,0-.14,0H88a.26.26,0,0,0-.14,0,.15.15,0,0,0-.06.1.14.14,0,0,0,0,.1.19.19,0,0,0,.13.07l.36.08a1.86,1.86,0,0,1,.5.23,1.53,1.53,0,0,1,.45.43,1.33,1.33,0,0,1,.19.72v4.17H85.33V102.7a1.33,1.33,0,0,1,.19-.72,1.53,1.53,0,0,1,.45-.43,1.73,1.73,0,0,1,.5-.23l.36-.08a.21.21,0,0,0,.13-.07.13.13,0,0,0,0-.1.14.14,0,0,0,0-.1.26.26,0,0,0-.14,0H80.72a.26.26,0,0,0-.14,0,.14.14,0,0,0,0,.1.13.13,0,0,0,0,.1.21.21,0,0,0,.13.07l.37.08a2,2,0,0,1,.5.23A1.63,1.63,0,0,1,82,102a1.25,1.25,0,0,1,.19.72V112a1.2,1.2,0,0,1-.19.72,1.58,1.58,0,0,1-.94.66l-.37.09a.26.26,0,0,0-.13.06.13.13,0,0,0,0,.1.14.14,0,0,0,0,.1.2.2,0,0,0,.14,0H86.8a.2.2,0,0,0,.14,0,.14.14,0,0,0,0-.1.13.13,0,0,0,0-.1.26.26,0,0,0-.13-.06c-.08,0-.2,0-.36-.09a1.47,1.47,0,0,1-.5-.22,1.56,1.56,0,0,1-.45-.44,1.28,1.28,0,0,1-.19-.72v-4.54h4.14V112a1.28,1.28,0,0,1-.19.72,1.64,1.64,0,0,1-1,.66c-.16,0-.28.07-.36.09a.23.23,0,0,0-.13.06.14.14,0,0,0,0,.1.15.15,0,0,0,.06.1.2.2,0,0,0,.14,0h6.08a.2.2,0,0,0,.14,0,.14.14,0,0,0,0-.1.14.14,0,0,0,0-.1.23.23,0,0,0-.13-.06l-.36-.09a1.66,1.66,0,0,1-.5-.22,1.54,1.54,0,0,1-.44-.44,1.2,1.2,0,0,1-.19-.72V102.7A1.25,1.25,0,0,1,92.8,102Z"/><path class="cls-1" d="M117.05,103.93a6.5,6.5,0,0,0-1-1.34,6.39,6.39,0,0,0-1.33-1,6.27,6.27,0,0,0-1.6-.66,6.85,6.85,0,0,0-1.83-.24,7.13,7.13,0,0,0-3.51.93,6.93,6.93,0,0,0-1.4,1.07,6.81,6.81,0,0,0-1.07,1.38,7,7,0,0,0-.68,1.61,6.29,6.29,0,0,0-.25,1.79,6.94,6.94,0,0,0,.49,2.59,6.42,6.42,0,0,0,1.37,2.1,6.22,6.22,0,0,0,2.09,1.41,7.09,7.09,0,0,0,4.53.27,7.07,7.07,0,0,0,1.65-.68,6.93,6.93,0,0,0,1.4-1.07,6.74,6.74,0,0,0,1.07-1.37,7.44,7.44,0,0,0,.69-1.61,6.61,6.61,0,0,0,.24-1.79,6.93,6.93,0,0,0-.23-1.77A6.51,6.51,0,0,0,117.05,103.93Zm-3,5.82a7.86,7.86,0,0,1-.58,2,3.69,3.69,0,0,1-1,1.31,2.18,2.18,0,0,1-2.73,0,3.69,3.69,0,0,1-1-1.31,7.86,7.86,0,0,1-.58-2,13.87,13.87,0,0,1-.19-2.39,14,14,0,0,1,.19-2.39,7.86,7.86,0,0,1,.58-2,3.69,3.69,0,0,1,1-1.31,2.18,2.18,0,0,1,2.73,0,3.69,3.69,0,0,1,1,1.31,7.86,7.86,0,0,1,.58,2,14,14,0,0,1,.19,2.39A13.87,13.87,0,0,1,114.05,109.75Z"/><path class="cls-1" d="M139.24,100.93H128.11c-.13,0-.2.06-.2.18v2.65c0,.1,0,.16.12.17s.15,0,.18-.14.07-.16.13-.29a4.34,4.34,0,0,1,.69-1,3.54,3.54,0,0,1,.58-.5,3.3,3.3,0,0,1,.75-.38,2.75,2.75,0,0,1,.93-.15.8.8,0,0,1,.47.12.68.68,0,0,1,.25.3,1.3,1.3,0,0,1,.09.42c0,.15,0,.31,0,.47v4.79c0,.53,0,1,0,1.56V112a1.2,1.2,0,0,1-.19.72,1.54,1.54,0,0,1-.44.44,1.66,1.66,0,0,1-.5.22l-.36.09a.23.23,0,0,0-.13.06.14.14,0,0,0,0,.1.14.14,0,0,0,.05.1.2.2,0,0,0,.14,0h6.08a.2.2,0,0,0,.14,0,.15.15,0,0,0,.06-.1.14.14,0,0,0,0-.1.23.23,0,0,0-.13-.06c-.08,0-.2,0-.36-.09a1.64,1.64,0,0,1-.95-.66,1.28,1.28,0,0,1-.19-.72v-9.66a3.26,3.26,0,0,1,0-.33.73.73,0,0,1,.13-.28.68.68,0,0,1,.24-.2,1.09,1.09,0,0,1,.39-.07,2.67,2.67,0,0,1,.93.15,3.3,3.3,0,0,1,.75.38,3.17,3.17,0,0,1,.58.5,3.24,3.24,0,0,1,.42.53,4.89,4.89,0,0,1,.27.46l.13.29c0,.1.1.15.18.14a.15.15,0,0,0,.13-.17v-2.65C139.44,101,139.37,100.93,139.24,100.93Z"/><path class="cls-1" d="M159.64,110.91c-.08,0-.14,0-.18.14s-.07.15-.14.28a3.42,3.42,0,0,1-.28.43,3.72,3.72,0,0,1-.43.5,2.54,2.54,0,0,1-.59.47,3.32,3.32,0,0,1-.76.35,3,3,0,0,1-.94.14,3.32,3.32,0,0,1-1.67-.35,1.12,1.12,0,0,1-.59-1v-4.25a.14.14,0,0,1,.14-.14h1.22a1.25,1.25,0,0,1,.7.17,1.51,1.51,0,0,1,.43.4,1.56,1.56,0,0,1,.22.45c0,.15.07.26.09.34a.11.11,0,0,0,.06.11.19.19,0,0,0,.1,0,.19.19,0,0,0,.1,0,.16.16,0,0,0,0-.12v-3.24a.16.16,0,0,0,0-.12.19.19,0,0,0-.1,0,.19.19,0,0,0-.1,0,.13.13,0,0,0-.06.11c0,.08,0,.19-.09.34a1.56,1.56,0,0,1-.22.45,1.38,1.38,0,0,1-.43.4,1.25,1.25,0,0,1-.7.17H154.2a.14.14,0,0,1-.14-.14v-3.87a1.41,1.41,0,0,1,.14-.64,1.3,1.3,0,0,1,.41-.43,1.94,1.94,0,0,1,.64-.24,4.07,4.07,0,0,1,.82-.08,2.58,2.58,0,0,1,1.09.22,2.93,2.93,0,0,1,.76.49,2.39,2.39,0,0,1,.48.56c.11.18.19.31.23.39s.11.13.19.12.11-.06.11-.16v-2c0-.12-.06-.18-.2-.18h-9.28a.3.3,0,0,0-.15,0,.14.14,0,0,0-.05.1.14.14,0,0,0,0,.1.19.19,0,0,0,.13.07l.36.08a2,2,0,0,1,.5.23,1.39,1.39,0,0,1,.44.43,1.25,1.25,0,0,1,.19.72V112a1.2,1.2,0,0,1-.19.72,1.42,1.42,0,0,1-.44.44,1.66,1.66,0,0,1-.5.22l-.36.09a.23.23,0,0,0-.13.06.14.14,0,0,0,0,.1.14.14,0,0,0,.05.1.22.22,0,0,0,.15,0h10.11c.14,0,.2-.06.2-.18v-2.53C159.76,111,159.72,110.92,159.64,110.91Z"/><path class="cls-1" d="M179.59,110.65c-.08,0-.14,0-.18.14s-.07.16-.13.3a2.93,2.93,0,0,1-.26.48,4,4,0,0,1-.43.56,3,3,0,0,1-.62.54,3.49,3.49,0,0,1-.85.39,3.4,3.4,0,0,1-1.1.16c-.34,0-.62,0-.83,0a1.54,1.54,0,0,1-.5-.09.5.5,0,0,1-.24-.21.92.92,0,0,1-.06-.37V102.7a1.33,1.33,0,0,1,.19-.72,1.53,1.53,0,0,1,.45-.43,1.73,1.73,0,0,1,.5-.23l.36-.08a.19.19,0,0,0,.13-.07.14.14,0,0,0,0-.1.21.21,0,0,0-.06-.1.26.26,0,0,0-.14,0h-6.08a.26.26,0,0,0-.14,0,.14.14,0,0,0,0,.1.11.11,0,0,0,0,.1.16.16,0,0,0,.12.07l.37.08a2,2,0,0,1,.5.23,1.63,1.63,0,0,1,.44.43,1.25,1.25,0,0,1,.19.72V112a1.2,1.2,0,0,1-.19.72,1.58,1.58,0,0,1-.94.66l-.37.09a.2.2,0,0,0-.12.06.11.11,0,0,0,0,.1.14.14,0,0,0,0,.1.2.2,0,0,0,.14,0h9.74c.13,0,.2-.06.2-.18v-2.79C179.72,110.72,179.68,110.66,179.59,110.65Z"/><path class="cls-1" d="M14.25,30.92v3.7L20.68,42V31.55s-.24-3.49,3.89-3.49h1.34V24.81H19.57S14.25,24.49,14.25,30.92Z"/><path class="cls-1" d="M33,24.81v3.25h2s2.54.08,2.54,3.25V52A4.65,4.65,0,0,1,35,54.25H46s-1.9-.63-2.06-2,0-21.35,0-21.35.47-6.11-5.32-6.11Z"/><path class="cls-1" d="M20.68,116.8V53.47l-6.43-7.53s-.32,64.26-.32,70.09a6.48,6.48,0,0,0,5.42,6.61h6.56v-2.82H23.38C20.76,119.82,20.68,116.8,20.68,116.8Z"/><path class="cls-1" d="M37.11,116.88c0,2.86-2.38,2.94-2.38,2.94H33v2.82h4.57c4.34,0,5.5-5.06,5.5-5.06s0-15.26,0-15.62c0-3.25,1.49-3.25,1.49-3.25V97.34h-9.3v1.37c2.14,0,1.82,3.25,1.82,3.25Z"/><path class="cls-1" d="M0,32.8v1.37s4.53.3,4.53,3.34v83.82s.29,4-2.57,4v1.43H13v-1.91s-2-.18-2-3.51V40.19L25.91,57.63V50.09L11,32.8Z"/><path class="cls-1" d="M33,65.94,46.74,82v39.3s-.3,4.11-3.34,4.11v1.31H56V125s-2.74.48-2.74-3.69V37.51s-.11-3.1,4.11-3.1V32.8H46.74V74.27L33,58.32Z"/><path class="cls-1" d="M55.76,135.75h-.13a5.74,5.74,0,0,1-2.23-4.94h0v0a5.69,5.69,0,0,1-2.23,4.94h-.25v.18a7,7,0,0,1-3.39,1v1.39h3.39v3.16c0,2.45-.67,3.52-3.39,3.52H35.33c-2.94,0-3.39-1.07-3.39-3.52v-5.68h0V25.48c.1-3.12.3-3.95.95-5.28,1-1.92,3-1.6,5-1.92C39.54,18,40.7,16,40.7,16H31.59V5.18C30.46,4.52,29.49,0,29.49,0s-1,4.52-2.1,5.18V16H18.28a5,5,0,0,0,2.86,2.27c2,.32,4,0,4.94,1.92.65,1.33.85,2.16,1,5.28V135.85h0v8.28a6.21,6.21,0,0,0,5.67,5.8H50.47c2.78,0,5.29-2.91,5.29-5.8v-5.76h3.52V137a7,7,0,0,1-3.52-1.13Z"/></svg>