<svg xmlns="http://www.w3.org/2000/svg" viewBox="0 0 59.42 48.36"><defs><style>.cls-1{fill:#1ba5d4;fill-rule:evenodd;}</style></defs><title>icon-twitter</title><g id="Layer_2" data-name="Layer 2"><g id="Layer_1-2" data-name="Layer 1"><path class="cls-1" d="M18,37.84A12.23,12.23,0,0,1,6.66,29.37a12.14,12.14,0,0,0,5.23-.16,1.12,1.12,0,0,0,.18-.08,12.19,12.19,0,0,1-7.93-5.6A11.88,11.88,0,0,1,2.35,17a12,12,0,0,0,5.43,1.48,12.27,12.27,0,0,1-5-7.4A12.07,12.07,0,0,1,4.07,2.26,34.91,34.91,0,0,0,29.25,15c-.07-.48-.15-.91-.2-1.33a11.88,11.88,0,0,1,1.79-8A11.73,11.73,0,0,1,39.12.19a11.88,11.88,0,0,1,10.69,3.4.61.61,0,0,0,.65.19,24.53,24.53,0,0,0,7.1-2.73L57.72,1h.08a12.47,12.47,0,0,1-5.23,6.65,23.46,23.46,0,0,0,6.8-1.83l.05,0C59,6.44,58.5,7.07,58,7.66a24,24,0,0,1-4.44,4.22.39.39,0,0,0-.2.38,32.86,32.86,0,0,1-.23,5.43A35.91,35.91,0,0,1,50,28.56a35,35,0,0,1-6.6,9.62,32.61,32.61,0,0,1-16.77,9.35,37,37,0,0,1-6.81.81A34.42,34.42,0,0,1,.29,43.1L0,42.91a24.73,24.73,0,0,0,12.21-1.68A24.51,24.51,0,0,0,18,37.84Z"/></g></g></svg>