<svg xmlns="http://www.w3.org/2000/svg" viewBox="0 0 51.38 66.35"><defs><style>.cls-1{fill:#e02a2f;fill-rule:evenodd;}</style></defs><title>icon-pinterest</title><g id="Layer_2" data-name="Layer 2"><g id="Layer_1-2" data-name="Layer 1"><path class="cls-1" d="M21.49,43.28c-.06.19-.11.35-.15.51-2.44,9.55-2.71,11.67-5.22,16.11a50.45,50.45,0,0,1-4,6c-.17.21-.33.49-.67.42s-.39-.41-.43-.7a52.15,52.15,0,0,1-.53-8.74c.13-3.82.6-5.13,5.52-25.81a1.52,1.52,0,0,0-.11-.87,14.56,14.56,0,0,1-.39-9.66c2.23-7.06,10.23-7.6,11.63-1.78C28,22.38,25.7,27.1,24,34.06c-1.45,5.75,5.32,9.83,11.1,5.64,5.33-3.87,7.4-13.14,7-19.71C41.28,6.89,26.92,4.05,17.8,8.27,7.35,13.1,5,26.06,9.69,32c.6.75,1.06,1.21.87,2-.31,1.19-.58,2.38-.9,3.56a1.27,1.27,0,0,1-1.87.84,10.78,10.78,0,0,1-4.36-3.27c-4-5-5.16-14.78.14-23.09C9.44,2.79,20.36-.93,30.32.2,42.23,1.55,49.75,9.68,51.16,18.91c.64,4.21.18,14.57-5.72,21.9-6.79,8.42-17.79,9-22.87,3.81A17,17,0,0,1,21.49,43.28Z"/></g></g></svg>