<svg xmlns="http://www.w3.org/2000/svg" xmlns:xlink="http://www.w3.org/1999/xlink" viewBox="0 0 61.38 61.35"><defs><style>.cls-1{fill:url(#linear-gradient);}</style><linearGradient id="linear-gradient" x1="52.55" y1="2.84" x2="2.01" y2="67.21" gradientUnits="userSpaceOnUse"><stop offset="0.01" stop-color="#3542e0"/><stop offset="0.17" stop-color="#3841df"/><stop offset="0.27" stop-color="#403fda"/><stop offset="0.36" stop-color="#4e3cd2"/><stop offset="0.43" stop-color="#6337c7"/><stop offset="0.5" stop-color="#7d31b9"/><stop offset="0.56" stop-color="#9e2aa8"/><stop offset="0.62" stop-color="#c32193"/><stop offset="0.62" stop-color="#c82091"/><stop offset="0.76" stop-color="#f62b37"/><stop offset="1" stop-color="#ffc658"/></linearGradient></defs><title>icon-instagram</title><g id="Layer_2" data-name="Layer 2"><g id="Layer_1-2" data-name="Layer 1"><path class="cls-1" d="M60.88,15.39a16.26,16.26,0,0,0-5-10.47A17,17,0,0,0,44.66.35C37.45,0,20.32-.3,14.31.69,7.43,1.81,2.93,5.82,1,12.61-.43,17.83-.14,41.9.71,47.06,1.87,54.12,6,58.65,13,60.45c4.84,1.25,28.64,1.09,34,.22,7.06-1.14,11.6-5.29,13.44-12.27C61.86,43,61.37,20.23,60.88,15.39ZM55.23,46.06c-.82,5.36-4.38,8.68-9.77,9.27-5,.55-27.06.84-31.65-.44a10.07,10.07,0,0,1-7.63-8.67c-.7-4.22-.87-25.33,0-31C7,9.93,10.53,6.61,15.89,6s25-.67,30.21.13,8.67,4.38,9.26,9.78C55.91,21,56.06,40.65,55.23,46.06ZM30.7,14.94A15.74,15.74,0,1,0,46.43,30.69,15.74,15.74,0,0,0,30.7,14.94Zm-.11,25.91A10.18,10.18,0,1,1,40.86,30.76,10.18,10.18,0,0,1,30.59,40.85Zm20.14-26.5a3.69,3.69,0,1,1-3.67-3.7A3.68,3.68,0,0,1,50.73,14.35Z"/><path class="cls-1" d="M60.88,15.39a16.26,16.26,0,0,0-5-10.47A17,17,0,0,0,44.66.35C37.45,0,20.32-.3,14.31.69,7.43,1.81,2.93,5.82,1,12.61-.43,17.83-.14,41.9.71,47.06,1.87,54.12,6,58.65,13,60.45c4.84,1.25,28.64,1.09,34,.22,7.06-1.14,11.6-5.29,13.44-12.27C61.86,43,61.37,20.23,60.88,15.39ZM55.23,46.06c-.82,5.36-4.38,8.68-9.77,9.27-5,.55-27.06.84-31.65-.44a10.07,10.07,0,0,1-7.63-8.67c-.7-4.22-.87-25.33,0-31C7,9.93,10.53,6.61,15.89,6s25-.67,30.21.13,8.67,4.38,9.26,9.78C55.91,21,56.06,40.65,55.23,46.06ZM30.7,14.94A15.74,15.74,0,1,0,46.43,30.69,15.74,15.74,0,0,0,30.7,14.94Zm-.11,25.91A10.18,10.18,0,1,1,40.86,30.76,10.18,10.18,0,0,1,30.59,40.85Zm20.14-26.5a3.69,3.69,0,1,1-3.67-3.7A3.68,3.68,0,0,1,50.73,14.35Z"/></g></g></svg>