<svg xmlns="http://www.w3.org/2000/svg" viewBox="0 0 61.41 61.74"><defs><style>.cls-1{fill:#0b8f21;fill-rule:evenodd;}</style></defs><title>icon-phone</title><g id="Layer_2" data-name="Layer 2"><g id="Layer_1-2" data-name="Layer 1"><path class="cls-1" d="M0,61.74c.35-1.34.65-2.5,1-3.66C2,54.38,3,50.67,4,47a2.75,2.75,0,0,0-.18-1.79A30.57,30.57,0,1,1,17,58.06a3.05,3.05,0,0,0-1.88-.21C7,59.89,1.64,61.42,0,61.74Zm7.13-7c3.05-.79,5.86-1.49,8.64-2.28a2.51,2.51,0,0,1,2.1.31,25.11,25.11,0,0,0,17,3.2A25.59,25.59,0,1,0,26.23,5.47C9,8.63-.1,27.81,8.45,43A5.31,5.31,0,0,1,9,47.86C8.26,50,7.79,52.26,7.13,54.7Z"/><path class="cls-1" d="M38.78,45.31c-6-.21-15.5-4.93-22-16.26-2.32-4-2-8.62,1.41-11.77,1.15-1.07,2.59-.81,3.93-.58.33.05.68.55.85.93.86,2,1.72,3.95,2.48,6,.4,1.06-.34,2.07-1.89,3.85a1.33,1.33,0,0,0-.21,1.74A20.87,20.87,0,0,0,34,38.32a1.26,1.26,0,0,0,1.61-.43c2.45-3,2.7-3.85,4-3.24,6.19,3,6.67,3.08,6.7,3.78C46.46,43.64,41.68,45.52,38.78,45.31Z"/></g></g></svg>