<svg xmlns="http://www.w3.org/2000/svg" viewBox="0 0 33.38 63.94"><defs><style>.cls-1{fill:#1e4fad;fill-rule:evenodd;}</style></defs><title>icon-facebook</title><g id="Layer_2" data-name="Layer 2"><g id="Layer_1-2" data-name="Layer 1"><path class="cls-1" d="M26.62,10.79c2-.07,4,0,5.95,0h.81V.47C32.33.36,31.22.21,30.11.16,28.08.07,26.05,0,24,0A15,15,0,0,0,15.4,2.67a12.88,12.88,0,0,0-5.17,8.61,29.5,29.5,0,0,0-.36,4.42c-.06,2.31,0,4.62,0,6.94v.86H0V35H9.8V63.94h12V35.06h9.77c.5-3.83,1-7.62,1.5-11.57H30.86c-2.78,0-9.16,0-9.16,0s0-5.7.1-8.18C21.89,11.92,23.9,10.89,26.62,10.79Z"/></g></g></svg>